<svg xmlns="http://www.w3.org/2000/svg" x="0px" y="0px" width="100" height="100" viewBox="0 0 30 30">
<path d="M14.297,11.822c0.22-0.32,0.46-0.362,0.657-0.362c0.195,0,0.52,0.042,0.74,0.362c2.865,3.903,8.808,14.199,9.357,14.76	c0.814,0.83,1.931,0.313,2.579-0.629c0.64-0.928,0.817-1.579,0.817-2.273c0-0.473-9.254-17.546-10.188-18.968	C17.363,3.345,17.071,3,15.538,3H14.39c-1.53,0-1.751,0.345-2.647,1.711C10.808,6.135,1.554,23.209,1.554,23.682	c0,0.696,0.177,1.345,0.817,2.273c0.648,0.942,1.765,1.461,2.579,0.629c0.549-0.561,6.483-10.857,9.348-14.759L14.297,11.822z"></path>
</svg>